<?xml version="1.0" standalone="no"?>
<!DOCTYPE svg PUBLIC "-//W3C//DTD SVG 20010904//EN"
 "http://www.w3.org/TR/2001/REC-SVG-20010904/DTD/svg10.dtd">
<svg version="1.0" xmlns="http://www.w3.org/2000/svg"
 width="256.000000pt" height="256.000000pt" viewBox="0 0 256.000000 256.000000"
 preserveAspectRatio="xMidYMid meet">
<metadata>
Created by potrace 1.11, written by Peter Selinger 2001-2013
</metadata>
<g transform="translate(0.000000,256.000000) scale(0.100000,-0.100000)"
fill="#000000" stroke="none">
<path d="M1939 2325 c-1 -11 -1 -73 -2 -138 l0 -117 -26 -6 c-151 -34 -195
-52 -278 -116 -99 -75 -153 -186 -159 -324 -5 -137 32 -238 120 -327 64 -63
129 -103 316 -195 91 -44 179 -94 197 -111 73 -71 48 -182 -52 -231 -103 -50
-331 -10 -491 86 -32 20 -63 36 -68 37 -5 1 -10 -78 -10 -180 l-1 -183 56 -24
c60 -27 207 -66 252 -66 l27 0 0 -138 0 -137 145 0 144 0 3 138 3 139 72 23
c175 55 301 178 343 335 20 72 15 195 -10 270 -49 144 -139 226 -375 340 -226
109 -270 146 -268 224 2 83 67 129 187 131 122 2 226 -21 340 -77 32 -16 61
-26 64 -24 4 4 6 261 2 332 0 12 -135 58 -202 70 l-38 6 0 142 0 141 -145 0
c-138 0 -145 -1 -146 -20z"/>
<path d="M725 2079 c-285 -39 -498 -187 -620 -429 -43 -86 -63 -155 -79 -271
-38 -285 37 -530 217 -712 104 -105 269 -201 384 -222 15 -3 39 -8 53 -11 14
-3 86 -7 160 -9 155 -3 255 12 363 53 l72 28 1 182 c1 100 0 182 -1 182 -1 0
-22 -11 -47 -25 -107 -60 -212 -84 -355 -80 -147 4 -248 46 -336 139 -132 140
-161 408 -66 599 51 101 146 184 254 222 127 45 382 12 512 -65 19 -11 35 -20
37 -20 2 0 2 80 2 177 l-1 177 -39 22 c-43 24 -139 51 -214 60 -72 9 -241 11
-297 3z"/>
</g>
</svg>
